<svg id="visual" viewBox="0 0 960 540" width="960" height="540" xmlns="http://www.w3.org/2000/svg" xmlns:xlink="http://www.w3.org/1999/xlink" version="1.1"><rect x="0" y="0" width="960" height="540" fill="#fafdc5"></rect><path d="M0 481L10 481.3C20 481.7 40 482.3 60 486.5C80 490.7 100 498.3 120 498.3C140 498.3 160 490.7 180 487C200 483.3 220 483.7 240 481C260 478.3 280 472.7 300 472.2C320 471.7 340 476.3 360 481.5C380 486.7 400 492.3 420 496.8C440 501.3 460 504.7 480 505.3C500 506 520 504 540 504.2C560 504.3 580 506.7 600 506.2C620 505.7 640 502.3 660 499.5C680 496.7 700 494.3 720 491.7C740 489 760 486 780 482.3C800 478.7 820 474.3 840 470.3C860 466.3 880 462.7 900 466.8C920 471 940 483 950 489L960 495L960 541L950 541C940 541 920 541 900 541C880 541 860 541 840 541C820 541 800 541 780 541C760 541 740 541 720 541C700 541 680 541 660 541C640 541 620 541 600 541C580 541 560 541 540 541C520 541 500 541 480 541C460 541 440 541 420 541C400 541 380 541 360 541C340 541 320 541 300 541C280 541 260 541 240 541C220 541 200 541 180 541C160 541 140 541 120 541C100 541 80 541 60 541C40 541 20 541 10 541L0 541Z" fill="#f5ff90" stroke-linecap="round" stroke-linejoin="miter"></path></svg>